<svg width="180" height="48" viewBox="0 0 180 48" fill="none" xmlns="http://www.w3.org/2000/svg">
<rect x="1" y="1" width="178" height="46" fill="#BEA267" stroke="#BEA267" stroke-width="2"/>
<path d="M42.9664 29V21.104H45.7944V19.662H38.5004V21.104H41.3284V29H42.9664ZM53.5805 29V27.558H48.8205V24.968H53.4825V23.526H48.8205V21.104H53.5805V19.662H47.1825V29H53.5805ZM62.8646 29L58.7906 24.072L62.5846 19.662H60.5546L56.9006 24.114V19.662H55.2626V29H56.9006V26.018L57.7126 25.066L60.8486 29H62.8646ZM67.7406 29.168C69.6306 29.168 70.7786 28.188 71.4926 27.068L70.0926 26.354C69.6446 27.138 68.7486 27.712 67.7406 27.712C65.8926 27.712 64.5206 26.298 64.5206 24.338C64.5206 22.378 65.8926 20.964 67.7406 20.964C68.7486 20.964 69.6446 21.552 70.0926 22.322L71.4926 21.608C70.7926 20.488 69.6306 19.508 67.7406 19.508C64.9826 19.508 62.8406 21.468 62.8406 24.338C62.8406 27.208 64.9826 29.168 67.7406 29.168ZM76.6676 29V21.104H79.4956V19.662H72.2016V21.104H75.0296V29H76.6676ZM92.0814 29L88.0074 24.072L91.8014 19.662H89.7714L86.1174 24.114V19.662H84.4794V29H86.1174V26.018L86.9294 25.066L90.0654 29H92.0814ZM101.309 29V19.662H99.6707V23.484H94.8127V19.662H93.1747V29H94.8127V24.926H99.6707V29H101.309ZM107.646 29.168C110.446 29.168 112.42 27.124 112.42 24.338C112.42 21.552 110.446 19.508 107.646 19.508C104.846 19.508 102.872 21.552 102.872 24.338C102.872 27.124 104.846 29.168 107.646 29.168ZM107.646 27.712C105.756 27.712 104.552 26.256 104.552 24.338C104.552 22.406 105.756 20.964 107.646 20.964C109.522 20.964 110.74 22.406 110.74 24.338C110.74 26.256 109.522 27.712 107.646 27.712ZM122.131 29V19.662H113.997V29H115.635V21.104H120.493V29H122.131ZM131.716 29L127.642 24.072L131.436 19.662H129.406L125.752 24.114V19.662H124.114V29H125.752V26.018L126.564 25.066L129.7 29H131.716ZM134.391 29L139.263 22.336V29H140.901V19.662H139.221L134.447 26.144V19.662H132.809V29H134.391Z" fill="white"/>
</svg>
