<svg width="363" height="98" viewBox="0 0 363 98" fill="none" xmlns="http://www.w3.org/2000/svg">
<path d="M9.52127 95.432C14.6333 95.432 17.6213 92.516 17.6213 88.556C17.6213 84.596 14.2013 82.796 12.1133 82.58C14.1653 82.22 17.2613 80.636 17.2613 76.964C17.2613 72.896 13.6973 70.628 9.52127 70.628C6.02927 70.628 3.36527 72.212 1.67327 74.264L2.96927 75.56C4.73327 73.58 6.67727 72.5 9.41327 72.5C12.5093 72.5 15.1733 74.156 15.1733 77.144C15.1733 80.348 12.2573 81.716 9.08927 81.716C8.11727 81.716 7.21727 81.716 6.85727 81.68V83.624C7.21727 83.588 8.11727 83.588 9.08927 83.588C12.6893 83.588 15.5333 84.992 15.5333 88.448C15.5333 91.616 13.1933 93.56 9.48527 93.56C6.42527 93.56 4.08527 92.12 2.75327 90.212L1.34927 91.436C2.71727 93.596 5.59727 95.432 9.52127 95.432ZM30.6873 95.432C35.7993 95.432 38.7513 91.688 38.7513 87.764C38.7513 82.652 35.3313 80.168 31.0113 80.168C27.7713 80.168 24.9993 82.508 23.9913 84.164C23.9553 83.804 23.9553 83.408 23.9553 83.048C23.9553 77.936 25.8633 72.5 31.0473 72.5C33.6753 72.5 35.1513 73.616 36.3033 75.2L37.5273 73.688C36.0873 71.888 34.1793 70.628 31.0473 70.628C24.4233 70.628 21.8673 76.856 21.8673 83.012C21.8673 89.456 24.2073 95.432 30.6873 95.432ZM30.6153 93.56C26.1153 93.56 24.3873 89.384 24.0993 86.108C25.4673 83.696 28.0233 82.004 30.6513 82.004C34.1073 82.004 36.6633 83.876 36.6633 87.8C36.6633 90.392 34.7193 93.56 30.6153 93.56Z" fill="black"/>
<path d="M50.6661 94.168C49.6955 94.168 48.9115 93.748 48.3141 92.908V96.576H47.5861V87.238H48.3141V88.302C48.5661 87.938 48.8975 87.644 49.3081 87.42C49.7281 87.1867 50.1808 87.07 50.6661 87.07C51.5715 87.07 52.2995 87.392 52.8501 88.036C53.4101 88.6707 53.6901 89.5293 53.6901 90.612C53.6901 91.6853 53.4101 92.5487 52.8501 93.202C52.2995 93.846 51.5715 94.168 50.6661 94.168ZM50.5401 93.51C51.2775 93.51 51.8561 93.2393 52.2761 92.698C52.6961 92.1567 52.9061 91.4613 52.9061 90.612C52.9061 89.772 52.6961 89.0813 52.2761 88.54C51.8561 87.9987 51.2775 87.728 50.5401 87.728C50.0828 87.728 49.6488 87.8447 49.2381 88.078C48.8275 88.3113 48.5195 88.596 48.3141 88.932V92.278C48.5195 92.614 48.8275 92.9033 49.2381 93.146C49.6581 93.3887 50.0921 93.51 50.5401 93.51ZM60.3166 94H59.4486L57.2086 91.018L54.9546 94H54.0866L56.7606 90.528L54.2406 87.238H55.1086L57.2086 90.024L59.2946 87.238H60.1626L57.6426 90.528L60.3166 94Z" fill="black"/>
<path d="M95.2415 95V93.544H85.4135C90.8175 89.176 95.1575 85.424 95.1575 81.308C95.1575 77.612 92.0215 76.044 89.2775 76.044C86.6455 76.044 84.3775 77.136 83.0615 78.928L84.1535 79.936C85.1615 78.508 86.9535 77.5 89.2775 77.5C91.3215 77.5 93.5335 78.62 93.5335 81.308C93.5335 84.92 89.2775 88.56 82.9215 93.684V95H95.2415ZM105.658 95.336C109.242 95.336 111.986 93.348 111.986 90.324C111.986 87.72 109.746 86.012 107.366 85.368C109.578 84.78 111.706 83.352 111.706 80.86C111.706 77.556 108.57 76.044 105.658 76.044C102.69 76.044 99.6104 77.556 99.6104 80.86C99.6104 83.352 101.738 84.78 103.95 85.368C101.57 86.012 99.3024 87.72 99.3024 90.324C99.3024 93.376 102.046 95.336 105.658 95.336ZM105.658 84.696C104.538 84.472 101.234 83.632 101.234 81.028C101.234 78.788 103.194 77.5 105.658 77.5C108.094 77.5 110.082 78.788 110.082 81.028C110.082 83.632 106.806 84.472 105.658 84.696ZM105.658 93.88C103.166 93.88 100.926 92.48 100.926 90.212C100.926 87.356 104.51 86.236 105.658 86.096C106.778 86.236 110.39 87.356 110.39 90.212C110.39 92.48 108.094 93.88 105.658 93.88Z" fill="black"/>
<path d="M123.666 94.168C125.472 94.168 126.69 92.768 126.69 90.612C126.69 88.442 125.472 87.07 123.666 87.07C122.658 87.07 121.79 87.616 121.314 88.302V87.238H120.586V96.576H121.314V92.908C121.86 93.678 122.714 94.168 123.666 94.168ZM123.54 93.51C122.602 93.51 121.706 92.922 121.314 92.278V88.932C121.706 88.288 122.602 87.728 123.54 87.728C125.052 87.728 125.906 88.974 125.906 90.612C125.906 92.25 125.052 93.51 123.54 93.51ZM133.317 94L130.643 90.528L133.163 87.238H132.295L130.209 90.024L128.109 87.238H127.241L129.761 90.528L127.087 94H127.955L130.209 91.018L132.449 94H133.317Z" fill="black"/>
<path d="M166.927 95V93.752H158.503C163.135 90.008 166.855 86.792 166.855 83.264C166.855 80.096 164.167 78.752 161.815 78.752C159.559 78.752 157.615 79.688 156.487 81.224L157.423 82.088C158.287 80.864 159.823 80 161.815 80C163.567 80 165.463 80.96 165.463 83.264C165.463 86.36 161.815 89.48 156.367 93.872V95H166.927ZM178.784 95V90.632H181.136V89.384H178.784V78.992H176.936L169.832 89.408V90.632H177.416V95H178.784ZM177.416 89.384H171.248L177.416 80.36V89.384Z" fill="black"/>
<path d="M191.666 93.0645C193.472 93.0645 194.69 91.6645 194.69 89.5085C194.69 87.3385 193.472 85.9665 191.666 85.9665C190.658 85.9665 189.79 86.5125 189.314 87.1985V86.1345H188.586V95.4725H189.314V91.8045C189.86 92.5745 190.714 93.0645 191.666 93.0645ZM191.54 92.4065C190.602 92.4065 189.706 91.8185 189.314 91.1745V87.8285C189.706 87.1845 190.602 86.6245 191.54 86.6245C193.052 86.6245 193.906 87.8705 193.906 89.5085C193.906 91.1465 193.052 92.4065 191.54 92.4065ZM201.317 92.8965L198.643 89.4245L201.163 86.1345H200.295L198.209 88.9205L196.109 86.1345H195.241L197.761 89.4245L195.087 92.8965H195.955L198.209 89.9145L200.449 92.8965H201.317Z" fill="black"/>
<path d="M231.14 95V82.994H230.204L227.558 85.784L228.188 86.45L230.114 84.398V95H231.14ZM237.775 95.216C240.079 95.216 241.843 93.938 241.843 91.994C241.843 90.32 240.403 89.222 238.873 88.808C240.295 88.43 241.663 87.512 241.663 85.91C241.663 83.786 239.647 82.814 237.775 82.814C235.867 82.814 233.887 83.786 233.887 85.91C233.887 87.512 235.255 88.43 236.677 88.808C235.147 89.222 233.689 90.32 233.689 91.994C233.689 93.956 235.453 95.216 237.775 95.216ZM237.775 88.376C237.055 88.232 234.931 87.692 234.931 86.018C234.931 84.578 236.191 83.75 237.775 83.75C239.341 83.75 240.619 84.578 240.619 86.018C240.619 87.692 238.513 88.232 237.775 88.376ZM237.775 94.28C236.173 94.28 234.733 93.38 234.733 91.922C234.733 90.086 237.037 89.366 237.775 89.276C238.495 89.366 240.817 90.086 240.817 91.922C240.817 93.38 239.341 94.28 237.775 94.28Z" fill="black"/>
<path d="M249.666 94.168C248.695 94.168 247.911 93.748 247.314 92.908V96.576H246.586V87.238H247.314V88.302C247.566 87.938 247.897 87.644 248.308 87.42C248.728 87.1867 249.181 87.07 249.666 87.07C250.571 87.07 251.299 87.392 251.85 88.036C252.41 88.6707 252.69 89.5293 252.69 90.612C252.69 91.6853 252.41 92.5487 251.85 93.202C251.299 93.846 250.571 94.168 249.666 94.168ZM249.54 93.51C250.277 93.51 250.856 93.2393 251.276 92.698C251.696 92.1567 251.906 91.4613 251.906 90.612C251.906 89.772 251.696 89.0813 251.276 88.54C250.856 87.9987 250.277 87.728 249.54 87.728C249.083 87.728 248.649 87.8447 248.238 88.078C247.827 88.3113 247.519 88.596 247.314 88.932V92.278C247.519 92.614 247.827 92.9033 248.238 93.146C248.658 93.3887 249.092 93.51 249.54 93.51ZM259.317 94H258.449L256.209 91.018L253.955 94H253.087L255.761 90.528L253.241 87.238H254.109L256.209 90.024L258.295 87.238H259.163L256.643 90.528L259.317 94Z" fill="black"/>
<path d="M287.967 95V84.328H287.135L284.783 86.808L285.343 87.4L287.055 85.576V95H287.967ZM294.137 95.192C296.409 95.192 297.721 93.528 297.721 91.784C297.721 89.512 296.201 88.408 294.281 88.408C292.841 88.408 291.609 89.448 291.161 90.184C291.145 90.024 291.145 89.848 291.145 89.688C291.145 87.416 291.993 85 294.297 85C295.465 85 296.121 85.496 296.633 86.2L297.177 85.528C296.537 84.728 295.689 84.168 294.297 84.168C291.353 84.168 290.217 86.936 290.217 89.672C290.217 92.536 291.257 95.192 294.137 95.192ZM294.105 94.36C292.105 94.36 291.337 92.504 291.209 91.048C291.817 89.976 292.953 89.224 294.121 89.224C295.657 89.224 296.793 90.056 296.793 91.8C296.793 92.952 295.929 94.36 294.105 94.36Z" fill="black"/>
<path d="M305.666 94.168C304.695 94.168 303.911 93.748 303.314 92.908V96.576H302.586V87.238H303.314V88.302C303.566 87.938 303.897 87.644 304.308 87.42C304.728 87.1867 305.181 87.07 305.666 87.07C306.571 87.07 307.299 87.392 307.85 88.036C308.41 88.6707 308.69 89.5293 308.69 90.612C308.69 91.6853 308.41 92.5487 307.85 93.202C307.299 93.846 306.571 94.168 305.666 94.168ZM305.54 93.51C306.277 93.51 306.856 93.2393 307.276 92.698C307.696 92.1567 307.906 91.4613 307.906 90.612C307.906 89.772 307.696 89.0813 307.276 88.54C306.856 87.9987 306.277 87.728 305.54 87.728C305.083 87.728 304.649 87.8447 304.238 88.078C303.827 88.3113 303.519 88.596 303.314 88.932V92.278C303.519 92.614 303.827 92.9033 304.238 93.146C304.658 93.3887 305.092 93.51 305.54 93.51ZM315.317 94H314.449L312.209 91.018L309.955 94H309.087L311.761 90.528L309.241 87.238H310.109L312.209 90.024L314.295 87.238H315.163L312.643 90.528L315.317 94Z" fill="black"/>
<path d="M334.21 94V84.662H333.482L331.424 86.832L331.914 87.35L333.412 85.754V94H334.21ZM341.078 94V91.452H342.45V90.724H341.078V84.662H340L335.856 90.738V91.452H340.28V94H341.078ZM340.28 90.724H336.682L340.28 85.46V90.724Z" fill="black"/>
<path d="M352.666 94.168C351.695 94.168 350.911 93.748 350.314 92.908V96.576H349.586V87.238H350.314V88.302C350.566 87.938 350.897 87.644 351.308 87.42C351.728 87.1867 352.181 87.07 352.666 87.07C353.571 87.07 354.299 87.392 354.85 88.036C355.41 88.6707 355.69 89.5293 355.69 90.612C355.69 91.6853 355.41 92.5487 354.85 93.202C354.299 93.846 353.571 94.168 352.666 94.168ZM352.54 93.51C353.277 93.51 353.856 93.2393 354.276 92.698C354.696 92.1567 354.906 91.4613 354.906 90.612C354.906 89.772 354.696 89.0813 354.276 88.54C353.856 87.9987 353.277 87.728 352.54 87.728C352.083 87.728 351.649 87.8447 351.238 88.078C350.827 88.3113 350.519 88.596 350.314 88.932V92.278C350.519 92.614 350.827 92.9033 351.238 93.146C351.658 93.3887 352.092 93.51 352.54 93.51ZM362.317 94H361.449L359.209 91.018L356.955 94H356.087L358.761 90.528L356.241 87.238H357.109L359.209 90.024L361.295 87.238H362.163L359.643 90.528L362.317 94Z" fill="black"/>
<circle cx="19" cy="18" r="18" fill="#F2EFE8"/>
<circle cx="95" cy="22" r="14" fill="#F2EFE8"/>
<circle cx="166" cy="24" r="12" fill="#F2EFE8"/>
<circle cx="228" cy="27" r="9" fill="#F2EFE8"/>
<circle cx="290" cy="28" r="8" fill="#F2EFE8"/>
<circle cx="344" cy="29" r="7" fill="#F2EFE8"/>
<path d="M19 19.5C19 19.5 65.5851 23.1576 95.5 24C123.021 24.775 138.484 23.0683 166 24C190.444 24.8277 204.055 27.2162 228.5 28C253.09 28.7884 266.897 28 291.5 28C312.393 28 345 28 345 28" stroke="#E2C3C3"/>
</svg>
