<svg width="207" height="35" viewBox="0 0 207 35" fill="none" xmlns="http://www.w3.org/2000/svg">
<rect x="0.5" y="0.5" width="206" height="34" fill="white" stroke="#999999"/>
<path d="M23.7134 22H22.5514V13.698H19.5974V12.662H26.6814V13.698H23.7134V22ZM29.6225 22.168C28.6145 22.168 27.7885 21.8413 27.1445 21.188C26.5005 20.5253 26.1785 19.6667 26.1785 18.612C26.1785 17.6227 26.4958 16.7873 27.1305 16.106C27.7652 15.4153 28.5585 15.07 29.5105 15.07C30.5092 15.07 31.2978 15.4153 31.8765 16.106C32.4645 16.7873 32.7585 17.6507 32.7585 18.696V18.962H27.2845C27.3312 19.6247 27.5738 20.18 28.0125 20.628C28.4512 21.076 29.0205 21.3 29.7205 21.3C30.5605 21.3 31.2558 21.0153 31.8065 20.446L32.3105 21.132C31.6198 21.8227 30.7238 22.168 29.6225 22.168ZM31.7225 18.192C31.7132 17.6133 31.5172 17.0953 31.1345 16.638C30.7518 16.1713 30.2058 15.938 29.4965 15.938C28.8245 15.938 28.2925 16.1667 27.9005 16.624C27.5178 17.0813 27.3125 17.604 27.2845 18.192H31.7225ZM40.4092 22H39.0652L36.6292 18.962L35.5092 20.068V22H34.4592V15.238H35.5092V18.836L39.0652 15.238H40.3952L37.3992 18.304L40.4092 22ZM44.5916 22.168C43.5929 22.168 42.7809 21.832 42.1556 21.16C41.5302 20.4787 41.2176 19.6293 41.2176 18.612C41.2176 17.5947 41.5302 16.75 42.1556 16.078C42.7809 15.406 43.5929 15.07 44.5916 15.07C45.6369 15.07 46.4629 15.462 47.0696 16.246L46.3696 16.89C45.9402 16.302 45.3662 16.008 44.6476 16.008C43.9382 16.008 43.3689 16.2507 42.9396 16.736C42.5196 17.2213 42.3096 17.8467 42.3096 18.612C42.3096 19.3773 42.5196 20.0073 42.9396 20.502C43.3689 20.9873 43.9382 21.23 44.6476 21.23C45.3569 21.23 45.9309 20.936 46.3696 20.348L47.0696 20.992C46.4629 21.776 45.6369 22.168 44.5916 22.168ZM50.8232 22H49.7732V16.162H47.8132V15.238H52.7972V16.162H50.8232V22ZM63.4114 22H62.3614V16.162H58.8334V22H57.7834V15.238H63.4114V22ZM70.884 21.146C70.2773 21.8273 69.47 22.168 68.462 22.168C67.454 22.168 66.642 21.8273 66.026 21.146C65.4193 20.4647 65.116 19.62 65.116 18.612C65.116 17.604 65.4193 16.764 66.026 16.092C66.642 15.4107 67.454 15.07 68.462 15.07C69.47 15.07 70.2773 15.4107 70.884 16.092C71.5 16.764 71.808 17.604 71.808 18.612C71.808 19.62 71.5 20.4647 70.884 21.146ZM66.81 20.474C67.2207 20.978 67.7713 21.23 68.462 21.23C69.1527 21.23 69.6987 20.978 70.1 20.474C70.5013 19.9607 70.702 19.34 70.702 18.612C70.702 17.884 70.5013 17.268 70.1 16.764C69.6987 16.26 69.1527 16.008 68.462 16.008C67.7713 16.008 67.2207 16.2647 66.81 16.778C66.4087 17.282 66.208 17.8933 66.208 18.612C66.208 19.34 66.4087 19.9607 66.81 20.474ZM72.7217 22.168V21.3C73.0391 21.3 73.3004 21.09 73.5057 20.67C73.7111 20.25 73.8791 19.55 74.0097 18.57L74.4437 15.238H79.1477V22H78.0977V16.162H75.3677L75.0597 18.696C74.9104 19.9373 74.6491 20.8287 74.2757 21.37C73.9024 21.902 73.3844 22.168 72.7217 22.168ZM82.2523 22H81.0203L82.8263 19.34C82.313 19.2747 81.893 19.06 81.5663 18.696C81.249 18.332 81.0903 17.87 81.0903 17.31C81.0903 16.7127 81.2817 16.218 81.6643 15.826C82.047 15.434 82.5697 15.238 83.2323 15.238H86.8023V22H85.7523V19.382H83.9043L82.2523 22ZM83.3443 18.458H85.7523V16.162H83.3443C82.9803 16.162 82.691 16.2693 82.4763 16.484C82.271 16.6893 82.1683 16.9647 82.1683 17.31C82.1683 17.6553 82.271 17.9353 82.4763 18.15C82.6817 18.3553 82.971 18.458 83.3443 18.458Z" fill="#555555"/>
</svg>
