<svg width="190" height="204" viewBox="0 0 190 204" fill="none" xmlns="http://www.w3.org/2000/svg">
<g clip-path="url(#clip0)">
<circle cx="51" cy="153" r="51" fill="#BEA267"/>
<rect x="101.662" y="1.07986" width="101.751" height="101.751" transform="rotate(30 101.662 1.07986)" stroke="#BEA267"/>
<mask id="mask0" mask-type="alpha" maskUnits="userSpaceOnUse" x="84" y="70" width="121" height="107">
<path d="M149.125 75.8562L194.644 176.732L84.5237 165.715L149.125 75.8562Z" fill="#C4C4C4"/>
</mask>
<g mask="url(#mask0)">
<line x1="143.239" y1="68.2831" x2="196.156" y2="187.653" stroke="#BEA267"/>
<line x1="140.529" y1="68.7263" x2="193.446" y2="188.096" stroke="#BEA267"/>
<line x1="137.818" y1="69.1696" x2="190.735" y2="188.539" stroke="#BEA267"/>
<line x1="135.107" y1="69.6128" x2="188.024" y2="188.982" stroke="#BEA267"/>
<line x1="132.397" y1="70.056" x2="185.313" y2="189.426" stroke="#BEA267"/>
<line x1="129.687" y1="70.4993" x2="182.603" y2="189.869" stroke="#BEA267"/>
<line x1="126.976" y1="70.9425" x2="179.892" y2="190.312" stroke="#BEA267"/>
<line x1="124.265" y1="71.3857" x2="177.181" y2="190.755" stroke="#BEA267"/>
<line x1="121.554" y1="71.829" x2="174.47" y2="191.199" stroke="#BEA267"/>
<line x1="118.844" y1="72.2722" x2="171.76" y2="191.642" stroke="#BEA267"/>
<line x1="116.133" y1="72.7155" x2="169.05" y2="192.085" stroke="#BEA267"/>
<line x1="113.422" y1="73.1587" x2="166.339" y2="192.528" stroke="#BEA267"/>
<line x1="110.712" y1="73.6019" x2="163.629" y2="192.972" stroke="#BEA267"/>
<line x1="108.002" y1="74.0452" x2="160.919" y2="193.415" stroke="#BEA267"/>
<line x1="105.291" y1="74.4884" x2="158.208" y2="193.858" stroke="#BEA267"/>
<line x1="102.58" y1="74.9316" x2="155.497" y2="194.301" stroke="#BEA267"/>
<line x1="99.8692" y1="75.3749" x2="152.786" y2="194.745" stroke="#BEA267"/>
<line x1="97.1592" y1="75.8181" x2="150.076" y2="195.188" stroke="#BEA267"/>
<line x1="94.4483" y1="76.2614" x2="147.365" y2="195.631" stroke="#BEA267"/>
<line x1="91.7374" y1="76.7046" x2="144.654" y2="196.074" stroke="#BEA267"/>
<line x1="89.0274" y1="77.1478" x2="141.944" y2="196.518" stroke="#BEA267"/>
<line x1="86.3165" y1="77.5912" x2="139.233" y2="196.961" stroke="#BEA267"/>
<line x1="83.6055" y1="78.0344" x2="136.522" y2="197.404" stroke="#BEA267"/>
<line x1="80.8946" y1="78.4777" x2="133.811" y2="197.847" stroke="#BEA267"/>
<line x1="78.1846" y1="78.9209" x2="131.101" y2="198.291" stroke="#BEA267"/>
<line x1="75.4737" y1="79.3641" x2="128.39" y2="198.734" stroke="#BEA267"/>
<line x1="72.7628" y1="79.8074" x2="125.679" y2="199.177" stroke="#BEA267"/>
<line x1="70.0518" y1="80.2506" x2="122.968" y2="199.62" stroke="#BEA267"/>
<line x1="67.3419" y1="80.6939" x2="120.258" y2="200.064" stroke="#BEA267"/>
<line x1="64.6309" y1="81.1371" x2="117.548" y2="200.507" stroke="#BEA267"/>
<line x1="61.921" y1="81.5803" x2="114.838" y2="200.95" stroke="#BEA267"/>
<line x1="59.21" y1="82.0236" x2="112.127" y2="201.393" stroke="#BEA267"/>
<line x1="56.5001" y1="82.4668" x2="109.417" y2="201.836" stroke="#BEA267"/>
<line x1="53.7891" y1="82.9103" x2="106.706" y2="202.28" stroke="#BEA267"/>
</g>
</g>
<defs>
<clipPath id="clip0">
<rect width="190" height="204" fill="white"/>
</clipPath>
</defs>
</svg>
