<svg width="141" height="34" viewBox="0 0 141 34" fill="none" xmlns="http://www.w3.org/2000/svg">
<path fill-rule="evenodd" clip-rule="evenodd" d="M91.4301 0.0353357C91.3358 0.0471141 91.0001 0.0883386 90.6939 0.123674C89.3394 0.276793 87.6786 0.742041 86.5479 1.28974C84.787 2.13779 83.2971 3.53353 82.5138 5.07061C81.9013 6.27201 81.6068 7.5382 81.6068 9.0105C81.601 11.8079 82.8083 13.9457 85.3288 15.6123C87.2546 16.8903 89.6221 17.7501 93.6091 18.6394C94.4218 18.816 95.4642 19.0693 95.9412 19.1988C99.5748 20.1823 101.353 21.3543 102.013 23.1858C102.184 23.6746 102.231 24.9644 102.095 25.571C101.595 27.8148 99.3039 29.4579 96.0825 29.8878C95.2404 29.9997 93.4618 29.9997 92.5078 29.8878C89.4866 29.5344 87.1074 28.4155 84.6516 26.1834C84.1451 25.7241 84.0744 25.677 83.8565 25.677C83.6268 25.677 83.5797 25.7123 82.8436 26.4367L82.0721 27.1964L82.3842 27.538C83.1793 28.4272 84.6221 29.5992 85.7646 30.2941C87.8612 31.5662 90.4112 32.3848 93.0025 32.6321C93.9919 32.7205 96.4594 32.6734 97.2898 32.5438C102.113 31.7841 105.246 29.1339 105.918 25.2353C106.253 23.2565 105.935 21.3366 105.005 19.7936C103.644 17.5263 100.835 15.8302 96.4653 14.6406C96.059 14.5346 94.9341 14.2637 93.9683 14.0458C91.1533 13.4156 89.84 13.0093 88.4855 12.3438C86.913 11.5723 86.0591 10.7243 85.6174 9.4993C85.4407 9.00461 85.3995 7.77965 85.5408 7.14951C86.012 4.9705 88.138 3.36863 91.2593 2.84449C92.0484 2.71493 94.4218 2.69726 95.258 2.81504C96.8894 3.04472 98.185 3.43341 99.4983 4.08712C100.806 4.73493 101.872 5.48286 103.079 6.60181C103.485 6.97283 103.568 7.02583 103.768 7.02583C103.98 7.02583 104.051 6.97283 104.763 6.29557C105.187 5.8951 105.535 5.53586 105.535 5.50642C105.535 5.41219 104.115 4.03411 103.568 3.59242C101.177 1.66665 98.0966 0.435802 94.8046 0.0883386C94.0331 0.0117788 91.9483 -0.0235565 91.4301 0.0353357ZM41.6367 16.7136V32.9737L41.7781 33.1386L41.9194 33.3035H44.3163L44.3458 20.1117L44.3752 6.92572L55.7061 19.6052C63.5446 28.3801 67.1429 32.3612 67.3844 32.5379C68.1205 33.0856 68.7154 33.2682 69.8638 33.3153L70.6706 33.3506V0.883383L70.4998 0.694928L70.329 0.500584L69.1453 0.482916L67.9615 0.459359L67.9498 13.5805L67.9321 26.6958L56.666 14.1871C50.4647 7.30852 45.2468 1.54886 45.0643 1.39574C44.6815 1.07184 44.069 0.759709 43.5507 0.618368C43.3564 0.571254 42.844 0.512362 42.42 0.488805L41.6367 0.45347V16.7136ZM117.401 10.6536C113.95 5.08828 111.129 0.518251 111.129 0.500584C111.129 0.477027 111.972 0.471138 113.002 0.488805C115.052 0.512362 115.181 0.535919 115.894 0.895161L115.957 0.927068L115.957 0.927188C116.024 0.961131 116.085 0.992026 116.145 1.02609C116.744 1.3706 117.158 2.03921 121.751 9.46317L121.751 9.46327L122.083 9.99989C124.851 14.4698 127.13 18.1329 127.148 18.1388C127.166 18.1388 129.574 14.2519 132.501 9.50519C136.035 3.78677 137.89 0.83038 138.008 0.736152C138.108 0.659592 138.296 0.571254 138.426 0.535919C138.65 0.477027 140.87 0.441691 140.87 0.494694C140.87 0.512362 138.037 5.06472 134.569 10.6124L128.267 20.7006V26.4602C128.267 30.6298 128.249 32.2965 128.196 32.4908C128.114 32.8265 127.796 33.1622 127.466 33.2623C127.295 33.3094 126.677 33.333 125.446 33.333H123.674V20.7713L117.401 10.6536ZM16.6017 0.771488C16.531 0.912829 12.7678 8.28613 8.23901 17.1553C3.70432 26.0244 0 33.2917 0 33.3035C0 33.3624 2.10245 33.3271 2.32624 33.2682C2.79738 33.1386 2.89749 32.9737 5.09417 28.6334L7.1554 24.558L15.5475 24.5639H23.9397L25.7948 28.1976C27.5321 31.5956 27.6734 31.8548 28.0209 32.2258C28.4685 32.6969 28.8277 32.9384 29.399 33.1445C29.823 33.2917 29.8642 33.2976 31.7016 33.3212C32.7264 33.333 33.5685 33.333 33.5685 33.3153C33.5685 33.2682 16.8314 0.624257 16.7843 0.565365C16.7548 0.541808 16.6783 0.630146 16.6017 0.771488ZM22.6617 22.1258C22.6499 22.0846 21.0539 18.9515 19.1164 15.1647C17.1788 11.3721 15.5711 8.25668 15.5534 8.23312C15.5181 8.1919 8.47458 21.9314 8.43335 22.1199C8.41569 22.1906 9.45219 22.2023 15.5475 22.2023C21.3484 22.2023 22.6794 22.1906 22.6617 22.1258Z" fill="#242424"/>
</svg>
