<svg width="163" height="44" viewBox="0 0 163 44" fill="none" xmlns="http://www.w3.org/2000/svg">
<g id="logo-main">
<path id="Shape" fill-rule="evenodd" clip-rule="evenodd" d="M43.3013 18.391V29.9596C43.3013 37.4247 37.2074 43.5056 29.7262 43.5056H13.7731C6.24236 43.5056 0.148438 37.4247 0.148438 29.9596V18.391H9.6609V29.9596C9.6609 33.4697 12.5345 36.3371 16.0521 36.3371H27.3977C30.9153 36.3371 33.7889 33.4697 33.7889 29.9596V18.391H43.3013ZM18.6284 14.782H24.8709C25.8618 14.782 26.7041 15.573 26.7041 16.6112V27.3393C26.7041 28.3281 25.9114 29.1685 24.8709 29.1685C22.7901 29.1685 20.7092 29.1685 18.6284 29.1685C17.6375 29.1685 16.7952 28.3775 16.7952 27.3393C16.7952 23.7798 16.7952 20.1708 16.7952 16.6112C16.7952 15.6225 17.6375 14.782 18.6284 14.782Z" fill="#242424"/>
<path id="Shape_2" fill-rule="evenodd" clip-rule="evenodd" d="M33.838 1.08764C38.4456 2.57079 42.0128 6.42697 43.0532 11.2225H33.838V1.08764ZM13.7727 0.444946H26.7037V7.61349H16.0517C13.5249 7.61349 11.345 9.09663 10.3046 11.2225H0.445312C1.73346 5.09214 7.23285 0.444946 13.7727 0.444946Z" fill="#242424"/>
<path id="Shape_3" fill-rule="evenodd" clip-rule="evenodd" d="M155.866 14.4854C160.473 14.4854 163 16.018 163 21.8023C163 27.6854 160.523 29.4157 155.866 29.4157C151.209 29.4157 148.732 27.6854 148.732 21.8023C148.732 16.018 151.209 14.4854 155.866 14.4854ZM107.164 14.8315V29.1191H113.654C118.262 29.1191 120.541 27.4382 120.541 21.8517C120.541 16.2652 118.311 14.782 113.654 14.782H107.164V14.8315ZM130.202 25.6584C128.022 25.6584 127.279 25.4607 127.081 23.4831V23.4337H132.977V20.0719H127.13C127.378 18.391 128.171 18.2427 130.202 18.2427H134.463V14.782H129.707C125.049 14.782 122.82 16.2652 122.82 21.8517C122.82 27.4382 125.099 29.1191 129.707 29.1191H134.463V25.6584H130.202ZM136.94 14.8315V21.9011C136.94 27.4382 139.17 29.1191 143.827 29.1191H146.997V25.6584H144.322C141.696 25.6584 141.151 25.3124 141.151 21.9506V14.8315H136.94ZM113.208 25.6584C115.834 25.6584 116.379 25.3124 116.379 21.9506C116.379 18.5393 115.785 18.2921 113.208 18.2921H111.177V25.6584H113.208ZM158.789 21.8023C158.789 25.4607 158.492 25.8067 155.866 25.8067C153.191 25.8067 152.893 25.4607 152.943 21.8023C152.943 18.391 153.191 18.0944 155.866 18.0944C158.492 18.0944 158.789 18.391 158.789 21.8023Z" fill="#242424"/>
<path id="Shape_4" fill-rule="evenodd" clip-rule="evenodd" d="M82.4907 23.4832C82.6889 25.4607 83.4321 25.6584 85.612 25.6584H89.8728V29.1191H85.1166C80.509 29.1191 78.2299 27.4382 78.2299 21.8517C78.2299 16.2652 80.4594 14.782 85.1166 14.782H89.8728V18.2427H85.612C83.5807 18.2427 82.788 18.391 82.5403 20.0719H88.3865V23.4337H82.4907V23.4832ZM64.4071 29.1191C59.7995 29.1191 57.5205 27.4382 57.5205 21.8517V14.8315H61.7318V21.9506C61.7318 25.2629 62.2767 25.6584 64.8035 25.6584V14.8315H68.7175V25.6584C71.2938 25.6584 71.8387 25.2629 71.8387 21.9506V14.8315H76.05V21.9011C76.05 27.4876 73.8205 29.1685 69.1634 29.1685C67.6275 29.1191 66.0421 29.1191 64.4071 29.1191ZM99.633 18.1438H96.264V20.1708H99.633C99.9798 20.1708 100.228 20.0719 100.228 19.182C100.228 18.3416 99.9798 18.1438 99.633 18.1438ZM96.264 25.7573V23.3348H99.633C100.128 23.3348 100.475 23.582 100.475 24.5708C100.475 25.5101 100.178 25.7573 99.7321 25.7573H96.264ZM104.488 18.2921C104.488 20.3191 103.943 21.4562 101.367 21.6539C104.092 21.8023 104.686 22.9888 104.736 25.3124C104.736 28.2292 103.2 29.1191 100.872 29.1191H92.35V14.8315H100.872C103.745 14.8315 104.488 15.8697 104.488 18.2921Z" fill="#242424"/>
<path id="Shape_5" fill-rule="evenodd" clip-rule="evenodd" d="M109.542 34.2112C110.236 34.2112 110.929 34.3101 111.326 34.4584L110.979 35.645C110.918 35.6362 110.851 35.6259 110.781 35.6149C110.452 35.5636 110.023 35.4966 109.493 35.4966C108.749 35.4966 108.65 35.645 108.65 35.8427C108.65 36.1393 108.749 36.1888 109.641 36.2876C110.83 36.436 111.375 36.9303 111.375 37.9191C111.375 39.3034 110.731 39.6989 108.997 39.6989C108.304 39.6989 107.66 39.6 107.214 39.4517L107.511 38.2157C107.565 38.2234 107.623 38.2322 107.686 38.2417C108.027 38.2934 108.495 38.3641 108.997 38.3641C109.74 38.3641 109.839 38.2652 109.839 38.018C109.839 37.7708 109.74 37.6719 108.749 37.573C107.66 37.4247 107.164 37.0787 107.164 36.0899C107.164 34.7551 107.858 34.2112 109.542 34.2112ZM117.073 35.5955V39.6H115.636V35.5955H113.902V34.3101H118.807V35.5955H117.073ZM124.703 34.3596H126.139V38.2652C126.139 39.4023 125.198 39.7483 123.86 39.7483C122.473 39.7483 121.581 39.4517 121.581 38.2652V34.3596H123.018V37.9191C123.018 38.2157 123.216 38.3641 123.86 38.3641C124.504 38.3641 124.703 38.2157 124.703 37.9191V34.3596ZM129.211 39.6V34.3596H131.589C133.274 34.3596 134.116 34.9034 134.116 36.9303C134.116 39.0067 133.274 39.6 131.589 39.6H129.211ZM132.58 36.9798C132.58 38.2157 132.382 38.3641 131.391 38.3641H130.648V35.5955H131.391C132.382 35.5955 132.58 35.6944 132.58 36.9798ZM136.99 39.6H138.426V34.3596H136.99V39.6ZM144.372 34.2112C146.056 34.2112 146.997 34.7551 146.997 36.8809C146.997 39.0562 146.106 39.6989 144.372 39.6989C142.687 39.6989 141.746 39.0562 141.746 36.8809C141.746 34.7551 142.638 34.2112 144.372 34.2112ZM145.462 36.8809C145.462 38.2157 145.363 38.3641 144.372 38.3641C143.381 38.3641 143.282 38.2652 143.282 36.8809C143.282 35.5955 143.381 35.4966 144.372 35.4966C145.363 35.4966 145.462 35.645 145.462 36.8809Z" fill="#242424"/>
</g>
</svg>
